<?xml version="1.0" encoding="UTF-8" standalone="no"?>
<!-- Uploaded to: SVG Repo, www.svgrepo.com, Generator: SVG Repo Mixer Tools -->

<svg
   xmlns:dc="http://purl.org/dc/elements/1.1/"
   xmlns:cc="http://creativecommons.org/ns#"
   xmlns:rdf="http://www.w3.org/1999/02/22-rdf-syntax-ns#"
   xmlns:svg="http://www.w3.org/2000/svg"
   xmlns="http://www.w3.org/2000/svg"
   xmlns:sodipodi="http://sodipodi.sourceforge.net/DTD/sodipodi-0.dtd"
   xmlns:inkscape="http://www.inkscape.org/namespaces/inkscape"
   height="800px"
   width="800px"
   version="1.1"
   id="Layer_1"
   viewBox="0 0 511.999 511.999"
   xml:space="preserve"
   sodipodi:docname="shovel-svgrepo-com.svg"
   inkscape:version="0.92.4 (5da689c313, 2019-01-14)"><metadata
   id="metadata3749"><rdf:RDF><cc:Work
       rdf:about=""><dc:format>image/svg+xml</dc:format><dc:type
         rdf:resource="http://purl.org/dc/dcmitype/StillImage" /><dc:title></dc:title></cc:Work></rdf:RDF></metadata><defs
   id="defs3747" /><sodipodi:namedview
   pagecolor="#ffffff"
   bordercolor="#666666"
   borderopacity="1"
   objecttolerance="10"
   gridtolerance="10"
   guidetolerance="10"
   inkscape:pageopacity="0"
   inkscape:pageshadow="2"
   inkscape:window-width="1920"
   inkscape:window-height="1017"
   id="namedview3745"
   showgrid="false"
   inkscape:zoom="0.75130096"
   inkscape:cx="342.91725"
   inkscape:cy="347.80263"
   inkscape:window-x="-8"
   inkscape:window-y="-8"
   inkscape:window-maximized="1"
   inkscape:current-layer="Layer_1" />





<path
   inkscape:connector-curvature="0"
   style="fill:#ceced1"
   d="m 397.63024,225.0155 c 4.402,4.402 11.539,4.402 15.94,0 l 63.684,-63.684 c 28.41,-28.409 40.508,-69.269 32.144,-108.567 l -6.877,-32.314 c -1.171,-5.502 -5.47,-9.801 -10.972,-10.972 l -32.314,-6.877 c -39.298,-8.364 -80.158,3.734 -108.567,32.144 l -63.684,63.684 c -4.402,4.402 -4.402,11.539 0,15.94 z"
   id="path3732" /><path
   inkscape:connector-curvature="0"
   style="fill:#aeacb3"
   d="m 286.98424,98.4305 c -4.402,4.402 -4.402,11.539 0,15.94 l 54.247,54.248 156.29,-156.29 c -1.708,-1.376 -3.737,-2.375 -5.97,-2.85 l -32.314,-6.877 c -39.298,-8.364 -80.158,3.734 -108.567,32.144 z"
   id="path3734" /><path
   inkscape:connector-curvature="0"
   style="fill:#533f29"
   d="m 390.33224,97.7315 c 6.126,0 12.252,2.337 16.927,7.011 9.348,9.349 9.348,24.505 0,33.852 l -258.128,258.127 c -9.349,9.349 -24.506,9.349 -33.853,0 -9.348,-9.349 -9.348,-24.505 0,-33.852 l 258.127,-258.127 c 4.674,-4.674 10.801,-7.011 16.927,-7.011 z"
   id="path3736" /><path
   inkscape:connector-curvature="0"
   style="fill:#a9825a"
   d="m 88.19824,349.6315 c 19.002,0 38.004,7.233 52.471,21.699 28.933,28.933 28.933,76.01 0,104.943 l -30.468,30.468 c -7.011,7.01 -18.379,7.01 -25.389,0 l -79.554,-79.554 c -7.011,-7.011 -7.011,-18.378 0,-25.389 l 30.468,-30.468 c 14.466,-14.465 33.469,-21.699 52.472,-21.699 z m 9.308,119.027 17.773,-17.774 c 14.933,-14.933 14.933,-39.231 0,-54.164 -7.234,-7.234 -16.852,-11.218 -27.083,-11.218 -10.23,0 -19.848,3.984 -27.082,11.218 l -17.774,17.774 z"
   id="path3738" /><path
   inkscape:connector-curvature="0"
   style="fill:#493623"
   d="m 390.33224,97.7315 c -6.126,0 -12.252,2.337 -16.927,7.011 l -258.127,258.127 c -9.021,9.022 -9.308,23.437 -0.918,32.837 l 291.882,-291.883 c -4.53,-4.043 -10.212,-6.092 -15.91,-6.092 z"
   id="path3740" /><path
   inkscape:connector-curvature="0"
   style="fill:#7e6142"
   d="m 88.19824,349.6315 c -19.003,0 -38.005,7.233 -52.472,21.699 l -30.468,30.468 c -7.011,7.011 -7.011,18.378 0,25.389 l 38.81,38.81 25.389,-25.389 -26.115,-26.115 17.774,-17.774 c 7.234,-7.234 16.852,-11.218 27.082,-11.218 9.774,0 18.981,3.643 26.092,10.274 l 25.388,-25.388 c -14.34,-13.823 -32.905,-20.756 -51.48,-20.756 z"
   id="path3742" />
<path
   style="fill:#ceced1"
   d="m 114.36872,225.0155 c -4.402,4.402 -11.539,4.402 -15.940005,0 l -63.684,-63.684 C 6.3347152,132.9225 -5.7632848,92.0625 2.6007152,52.7645 l 6.877,-32.314 c 1.1709998,-5.502 5.4699998,-9.801 10.9719998,-10.972 l 32.314,-6.877 c 39.298,-8.364 80.158005,3.734 108.567005,32.144 l 63.684,63.684 c 4.402,4.402 4.402,11.539 0,15.94 z"
   id="path3732-6"
   inkscape:connector-curvature="0" /><path
   style="fill:#aeacb3"
   d="m 225.01472,98.4305 c 4.402,4.402 4.402,11.539 0,15.94 l -54.247,54.248 -156.290005,-156.29 c 1.708,-1.376 3.737,-2.375 5.97,-2.85 l 32.314,-6.877 c 39.298,-8.364 80.158005,3.734 108.567005,32.144 z"
   id="path3734-2"
   inkscape:connector-curvature="0" /><path
   style="fill:#533f29"
   d="m 121.66672,97.7315 c -6.126,0 -12.252,2.337 -16.927,7.011 -9.348005,9.349 -9.348005,24.505 0,33.852 l 258.128,258.127 c 9.349,9.349 24.506,9.349 33.853,0 9.348,-9.349 9.348,-24.505 0,-33.852 l -258.127,-258.127 c -4.674,-4.674 -10.801,-7.011 -16.927,-7.011 z"
   id="path3736-5"
   inkscape:connector-curvature="0" /><path
   style="fill:#a9825a"
   d="m 423.80072,349.6315 c -19.002,0 -38.004,7.233 -52.471,21.699 -28.933,28.933 -28.933,76.01 0,104.943 l 30.468,30.468 c 7.011,7.01 18.379,7.01 25.389,0 l 79.554,-79.554 c 7.011,-7.011 7.011,-18.378 0,-25.389 l -30.468,-30.468 c -14.466,-14.465 -33.469,-21.699 -52.472,-21.699 z m -9.308,119.027 -17.773,-17.774 c -14.933,-14.933 -14.933,-39.231 0,-54.164 7.234,-7.234 16.852,-11.218 27.083,-11.218 10.23,0 19.848,3.984 27.082,11.218 l 17.774,17.774 z"
   id="path3738-8"
   inkscape:connector-curvature="0" /><path
   style="fill:#493623"
   d="m 121.66672,97.7315 c 6.126,0 12.252,2.337 16.927,7.011 l 258.127,258.127 c 9.021,9.022 9.308,23.437 0.918,32.837 l -291.882,-291.883 c 4.53,-4.043 10.212,-6.092 15.91,-6.092 z"
   id="path3740-4"
   inkscape:connector-curvature="0" /><path
   style="fill:#7e6142"
   d="m 423.80072,349.6315 c 19.003,0 38.005,7.233 52.472,21.699 l 30.468,30.468 c 7.011,7.011 7.011,18.378 0,25.389 l -38.81,38.81 -25.389,-25.389 26.115,-26.115 -17.774,-17.774 c -7.234,-7.234 -16.852,-11.218 -27.082,-11.218 -9.774,0 -18.981,3.643 -26.092,10.274 l -25.388,-25.388 c 14.34,-13.823 32.905,-20.756 51.48,-20.756 z"
   id="path3742-1"
   inkscape:connector-curvature="0" /></svg>